<svg width="318" height="274" viewBox="0 0 318 274" fill="none" xmlns="http://www.w3.org/2000/svg">
<path d="M34.473 272.98C34.1441 272.507 33.4031 272.537 32.9215 272.222C31.2662 271.139 29.5085 270.017 28.3996 268.379C27.7398 267.404 27.4232 266.199 27.2761 265.031C26.6261 259.866 27.7481 254.619 28.4191 249.458C28.6421 247.742 29.0779 246.061 29.3753 244.357C29.7149 242.411 29.9586 240.448 30.3208 238.506C30.596 237.031 30.9169 235.564 31.2533 234.101C31.4841 233.098 31.5305 232.021 31.9981 231.103C32.1009 230.902 32.421 230.81 32.4352 230.584C32.4548 230.272 32.0046 230.099 31.9257 229.796C31.6906 228.894 31.9889 227.93 32.1056 227.005C32.3303 225.224 32.7972 223.483 33.1048 221.715C33.4465 219.751 33.8588 217.793 34.0449 215.808C34.1314 214.886 34.3021 213.94 34.1258 213.031C33.9685 212.22 33.5578 211.468 33.1331 210.76C32.3455 209.446 31.2394 208.352 30.2869 207.152C27.4481 203.577 24.7066 199.921 21.737 196.453C21.4981 196.174 21.2312 195.92 20.9922 195.642C20.6136 195.2 20.2491 194.745 19.9017 194.278C18.8055 192.804 17.696 191.331 16.7699 189.744C16.5251 189.325 16.358 188.864 16.1331 188.434C15.8112 187.817 15.4566 187.218 15.1143 186.613C14.7773 186.017 14.4209 185.431 14.0954 184.829C13.8289 184.335 13.5853 183.83 13.3312 183.33C13.0758 182.827 12.8145 182.327 12.5671 181.821C12.2171 181.104 11.8817 180.381 11.5482 179.656C11.2022 178.905 10.8767 178.144 10.5293 177.393C10.1971 176.675 9.82767 175.974 9.51043 175.249C9.14461 174.413 8.81661 173.56 8.49154 172.708C8.24413 172.059 8.02226 171.4 7.78277 170.749C7.43943 169.814 7.08989 168.882 6.73889 167.95C6.38388 167.008 5.99292 166.079 5.66464 165.127C5.387 164.322 5.14146 163.505 4.90817 162.686C4.54473 161.41 4.21366 160.125 3.90655 158.834C3.54066 157.296 3.25032 155.741 2.90498 154.198C2.65285 153.072 2.31668 151.963 2.12352 150.825C1.9872 150.022 1.87329 149.21 1.85858 148.396C1.84536 147.664 2.24989 146.901 2.0177 146.207C1.91115 145.889 1.48508 145.759 1.35489 145.449C-0.610355 140.78 0.129285 135.363 0.168535 130.297C0.20977 124.973 1.21233 119.7 1.6619 114.395C1.73246 113.562 1.77622 112.727 1.85087 111.895C1.92956 111.017 1.98025 110.134 2.12376 109.265C2.31152 108.127 2.62572 107.014 2.8913 105.891C3.21785 104.512 3.54504 103.132 3.90683 101.761C4.22495 100.555 4.58977 99.3624 4.92234 98.1608C5.1693 97.2684 5.35786 96.3587 5.65002 95.4801C5.95699 94.5569 6.38518 93.6784 6.72439 92.7666C7.07827 91.8155 7.36216 90.8388 7.72638 89.8915C8.03328 89.0933 8.36917 88.3061 8.72254 87.5274C9.06093 86.7817 9.44833 86.0593 9.79812 85.3189C10.0482 84.7896 10.2882 84.2556 10.5295 83.7222C10.8726 82.9641 11.2014 82.1995 11.5484 81.4432C11.881 80.7184 12.2173 79.9953 12.5673 79.2788C12.8148 78.7722 13.0799 78.2744 13.3315 77.7698C13.5895 77.2523 13.8345 76.7284 14.0956 76.2124C14.4066 75.5978 14.7058 74.9761 15.0513 74.3802C15.4565 73.6814 15.9034 73.0071 16.3593 72.3403C16.6237 71.9535 16.9211 71.5899 17.1866 71.2039C17.3515 70.9643 17.507 70.7185 17.6617 70.4723C18.0965 69.7806 18.4911 69.0639 18.9353 68.3783C19.3421 67.7505 19.7731 67.1385 20.209 66.5305C21.7787 64.341 23.5744 62.3116 25.0385 60.05C25.3265 59.605 25.5055 59.0928 25.8128 58.661C25.9654 58.4466 26.1578 58.2635 26.3383 58.072C26.617 57.7762 26.9149 57.499 27.1982 57.2076C31.2695 53.0215 35.1488 48.6494 39.2686 44.5111C41.0533 42.7185 42.8243 40.9038 44.7451 39.2581C45.5351 38.5813 46.4293 38.0338 47.2253 37.3641C47.5098 37.1247 47.767 36.8545 48.044 36.6065C48.3316 36.349 48.6069 36.0748 48.9195 35.8482C49.584 35.3666 50.3562 35.0493 51.0302 34.581C51.9715 33.9269 52.8234 33.1524 53.7175 32.4351C54.3433 31.933 54.9166 31.3583 55.5915 30.9244C55.9869 30.6702 56.4404 30.5194 56.8523 30.2931C57.354 30.0174 57.8413 29.7157 58.3248 29.4092C60.0255 28.3311 61.7171 27.2345 63.3469 26.0517C63.8188 25.7093 64.2412 25.3004 64.722 24.9706C65.1194 24.6981 65.5394 24.4587 65.9647 24.2322C66.6588 23.8626 67.3947 23.5769 68.0965 23.2221C68.7305 22.9015 69.376 22.5967 69.9734 22.212C70.324 21.9862 70.6268 21.6929 70.9688 21.4543C71.3543 21.1855 71.7453 20.9219 72.1577 20.6967C72.8636 20.3114 73.6195 20.0257 74.3487 19.6866C75.0677 19.3523 75.7844 19.0132 76.5022 18.6765C77.2201 18.3397 77.9348 17.9963 78.6557 17.6663C79.4064 17.3226 80.18 17.0279 80.9172 16.6562C81.3397 16.4431 81.7317 16.1727 82.1535 15.9581C82.875 15.5912 83.6215 15.2752 84.3638 14.9525C85.2171 14.5815 86.0793 14.2315 86.942 13.8828C87.5851 13.6228 88.2299 13.3667 88.8784 13.1206C89.6053 12.8449 90.3381 12.5851 91.069 12.3203C92.0725 11.9567 93.0829 11.6122 94.0824 11.2377C94.8766 10.9402 95.6584 10.6102 96.4526 10.3126C97.3588 9.97298 98.2716 9.65092 99.1849 9.3309C100.209 8.97202 101.227 8.59343 102.266 8.27859C103.157 8.0084 104.067 7.80547 104.966 7.56154C106.178 7.23254 107.384 6.87906 108.597 6.55471C109.898 6.20702 111.204 5.87961 112.509 5.54789C113.57 5.27804 114.63 5.00142 115.696 4.7478C117.274 4.37213 118.854 4.00116 120.445 3.67906C122.093 3.34529 123.749 3.05322 125.409 2.78437C127.684 2.41573 129.972 2.12315 132.255 1.79964C134.546 1.47484 136.824 1.01073 139.132 0.839522C151.045 -0.0440492 163.052 -0.346306 174.967 0.504055C177.548 0.688241 180.091 1.23222 182.639 1.67816C184.273 1.96405 186.227 1.60236 187.521 2.64043C187.629 2.7267 187.555 2.98682 187.688 3.01923C188.012 3.09775 188.145 2.48251 188.465 2.38786C189.092 2.20212 189.771 2.49591 190.417 2.59814C192.256 2.88879 194.066 3.33926 195.883 3.74215C197.385 4.07516 198.879 4.44118 200.377 4.79455C201.429 5.04273 202.477 5.30434 203.531 5.54453C204.694 5.80961 205.872 6.00666 207.026 6.30722C208.224 6.61905 209.393 7.03257 210.579 7.38538C211.649 7.70395 212.728 7.99626 213.797 8.32328C214.794 8.62861 215.789 8.94189 216.776 9.27939C217.771 9.61966 218.75 10.0069 219.742 10.3567C220.464 10.6114 221.194 10.843 221.915 11.1003C222.826 11.4251 223.731 11.7643 224.634 12.1105C225.488 12.4383 226.337 12.7822 227.187 13.1206C227.819 13.3719 228.456 13.608 229.08 13.8782C229.627 14.1154 230.179 14.3458 230.701 14.6358C230.944 14.7716 231.144 14.9855 231.402 15.0938C231.653 15.1996 231.937 15.1991 232.2 15.2708C232.715 15.4111 233.229 15.5622 233.722 15.7654C234.474 16.0753 235.178 16.4922 235.901 16.8649C236.58 17.215 237.256 17.5723 237.93 17.9326C238.388 18.1776 238.832 18.4506 239.3 18.6765C240.075 19.0507 240.89 19.338 241.677 19.6866C242.412 20.0123 243.162 20.3114 243.868 20.6968C244.28 20.9219 244.665 21.1951 245.057 21.4544C245.429 21.7005 245.817 21.9267 246.16 22.212C246.341 22.3624 246.472 22.568 246.659 22.7113C246.78 22.8045 246.918 22.8755 247.057 22.9408C247.496 23.1479 247.973 23.2614 248.419 23.4517C248.972 23.6875 249.515 23.9498 250.045 24.2323C250.475 24.4608 250.902 24.6967 251.304 24.9707C251.785 25.2992 252.205 25.7118 252.679 26.0518C254.34 27.2445 256.085 28.3152 257.813 29.4093C258.289 29.7109 258.761 30.0207 259.254 30.2931C259.596 30.4819 259.972 30.6072 260.305 30.8122C261.609 31.617 262.76 32.6488 263.977 33.5823C265.273 34.577 266.505 35.6575 267.84 36.5987C268.23 36.8733 268.675 37.067 269.048 37.3641C276.251 43.1067 282.768 49.7524 288.675 56.8234C289.015 57.2301 289.253 57.7133 289.576 58.1337C290.093 58.808 290.7 59.4094 291.232 60.0726C292.16 61.2309 293.052 62.4192 293.906 63.6328C294.572 64.5787 295.17 65.5713 295.817 66.5306C296.235 67.1509 296.683 67.7505 297.09 68.3783C297.535 69.0639 297.934 69.7774 298.364 70.4724C298.515 70.7173 298.668 70.9616 298.823 71.204C299.15 71.7121 299.471 72.2239 299.816 72.7192C300.175 73.2349 300.641 73.681 300.939 74.2344C301.071 74.4793 301.124 74.7593 301.226 75.0182C301.289 75.1782 301.352 75.3385 301.427 75.4935C301.579 75.8112 301.768 76.1107 301.93 76.4233C302.193 76.9288 302.418 77.4542 302.694 77.9525C302.931 78.3793 303.23 78.7701 303.459 79.2011C303.843 79.9262 304.14 80.6948 304.477 81.4432C304.819 82.2019 305.153 82.9641 305.496 83.7223C305.738 84.2556 305.978 84.7897 306.228 85.319C306.577 86.0594 306.965 86.7818 307.303 87.5274C307.657 88.3061 307.993 89.0934 308.299 89.8916C308.664 90.8389 308.948 91.8155 309.301 92.7667C309.641 93.6784 310.058 94.5608 310.376 95.4802C310.653 96.2806 310.868 97.1013 311.1 97.9158C311.454 99.1534 311.803 100.392 312.119 101.64C312.486 103.092 312.797 104.558 313.138 106.016C313.392 107.099 313.738 108.164 313.902 109.265C314.037 110.164 314.006 111.081 314.081 111.988C314.13 112.57 314.199 113.149 314.256 113.73C314.799 119.252 315.775 124.75 315.852 130.297C315.929 135.866 319.838 144.796 314.712 146.965C313.446 145.631 314.06 148.007 314.215 148.84C314.192 149.535 314.105 150.229 313.985 150.914C313.777 152.11 313.413 153.274 313.138 154.456C312.789 155.953 312.492 157.463 312.119 158.954C311.807 160.203 311.45 161.44 311.1 162.679C310.871 163.488 310.657 164.303 310.391 165.102C310.077 166.046 309.693 166.966 309.347 167.9C309.005 168.826 308.697 169.765 308.326 170.68C308.016 171.445 307.66 172.191 307.319 172.943C306.967 173.718 306.594 174.483 306.247 175.26C305.989 175.836 305.763 176.427 305.496 177C305.176 177.688 304.812 178.355 304.477 179.037C304.133 179.739 303.807 180.451 303.458 181.151C303.21 181.651 302.974 182.159 302.694 182.642C302.46 183.047 302.155 183.41 301.93 183.821C301.563 184.493 301.326 185.23 300.981 185.913C300.578 186.711 300.157 187.502 299.673 188.254C299.419 188.65 299.106 189.004 298.839 189.391C298.674 189.63 298.519 189.876 298.364 190.122C297.929 190.814 297.535 191.531 297.09 192.216C296.684 192.844 296.253 193.456 295.817 194.064C294.247 196.254 292.47 198.295 290.987 200.545C290.704 200.974 290.518 201.466 290.213 201.88C289.99 202.181 289.697 202.424 289.449 202.705C289.187 203.002 288.952 203.322 288.685 203.614C282.425 210.432 276.278 217.471 269.034 223.23C268.666 223.522 268.228 223.713 267.84 223.977C265.383 225.653 262.997 227.435 260.672 229.291C260.495 229.433 260.335 229.596 260.156 229.735C259.665 230.117 259.133 230.443 258.627 230.807C258.114 231.176 257.679 231.68 257.099 231.932C256.827 232.05 256.519 232.072 256.223 232.096C256.04 232.112 255.843 232.019 255.671 232.085C254.647 232.479 254.145 233.675 253.273 234.343C252.763 234.733 252.182 235.021 251.632 235.353C251.063 235.695 250.496 236.041 249.916 236.363C249.424 236.636 248.933 236.914 248.419 237.143C247.976 237.341 247.496 237.447 247.057 237.654C246.919 237.72 246.781 237.791 246.659 237.884C246.473 238.027 246.341 238.233 246.16 238.383C245.817 238.668 245.429 238.895 245.057 239.141C244.665 239.4 244.28 239.673 243.868 239.898C243.162 240.284 242.402 240.561 241.677 240.908C240.996 241.235 240.32 241.574 239.648 241.919C239.008 242.247 238.39 242.62 237.74 242.929C236.96 243.299 236.138 243.576 235.354 243.939C234.844 244.175 234.353 244.452 233.848 244.699C233.097 245.067 232.348 245.44 231.581 245.773C230.741 246.136 229.875 246.435 229.027 246.78C228.47 247.007 227.92 247.253 227.362 247.478C226.496 247.826 225.624 248.16 224.75 248.485C223.815 248.832 222.879 249.176 221.934 249.491C221.166 249.747 220.383 249.956 219.615 250.211C218.594 250.549 217.586 250.926 216.573 251.285C215.647 251.613 214.733 251.975 213.797 252.271C212.642 252.636 211.458 252.902 210.296 253.243C209.132 253.585 207.991 254.001 206.821 254.318C205.785 254.599 204.73 254.808 203.685 255.051C202.488 255.328 201.291 255.609 200.093 255.88C198.486 256.243 196.88 256.611 195.267 256.945C193.695 257.271 192.116 257.565 190.539 257.864C189.436 258.073 188.337 258.309 187.227 258.476C182.604 259.171 177.963 259.826 173.296 260.093C162.954 260.684 152.56 260.679 142.22 260.055C137.611 259.777 133.033 259.087 128.465 258.406C127.271 258.229 126.087 257.985 124.899 257.771C123.328 257.488 121.752 257.233 120.188 256.917C118.572 256.589 116.965 256.223 115.362 255.838C114.338 255.591 113.322 255.316 112.303 255.051C111.026 254.718 109.75 254.38 108.475 254.04C107.222 253.706 105.969 253.375 104.719 253.03C103.906 252.806 103.09 252.594 102.286 252.34C101.311 252.034 100.355 251.672 99.3906 251.336C98.3611 250.977 97.3619 250.517 96.3031 250.258C94.5889 249.838 92.8283 249.459 91.0638 249.495C89.2357 249.533 87.3932 249.887 85.6721 250.505C85.0158 250.74 84.4719 251.22 83.8402 251.515C83.4514 251.697 83.0278 251.797 82.64 251.981C81.3511 252.592 80.1629 253.396 78.9165 254.09C77.6906 254.773 76.4843 255.495 75.2235 256.11C74.6697 256.38 74.0732 256.559 73.5266 256.843C72.9345 257.151 72.3968 257.555 71.8215 257.893C71.4154 258.132 71.0045 258.364 70.5891 258.586C69.935 258.936 69.2661 259.258 68.6058 259.596C67.9521 259.931 67.2964 260.263 66.647 260.606C66.0229 260.936 65.4033 261.275 64.785 261.616C64.1827 261.949 63.5919 262.302 62.9854 262.627C62.4803 262.897 61.9786 263.176 61.4544 263.407C61.0106 263.603 60.5306 263.711 60.0919 263.918C59.9535 263.983 59.8239 264.066 59.6942 264.148C59.4425 264.305 59.2163 264.503 58.9565 264.647C58.6221 264.832 58.246 264.932 57.9075 265.11C56.7166 265.734 55.6322 266.545 54.4688 267.22C53.2532 267.924 52.033 268.626 50.7703 269.242C50.2166 269.512 49.6223 269.695 49.0735 269.975C48.4914 270.272 47.9621 270.664 47.3876 270.976C46.752 271.32 46.0952 271.624 45.4421 271.934C44.6742 272.299 43.9532 272.814 43.1226 272.994C40.3049 273.605 36.6094 274.917 34.473 272.98C34.4735 272.981 34.4723 272.979 34.473 272.98ZM32.4352 271.212C32.3862 270.971 32.1371 270.658 31.8957 270.707C31.7152 270.745 31.6346 271.032 31.6712 271.212C31.7201 271.454 31.9693 271.766 32.2107 271.717C32.3912 271.679 32.4718 271.393 32.4352 271.212ZM42.9163 260.388C43.2948 259.853 44.1311 259.894 44.7141 259.596C45.1585 259.368 45.58 259.098 46.0059 258.838C46.4068 258.593 46.7823 258.305 47.1948 258.08C47.9007 257.695 48.6578 257.412 49.3858 257.07C50.0919 256.738 50.8098 256.429 51.4972 256.06C52.0751 255.75 52.6224 255.386 53.1858 255.05C53.752 254.713 54.3079 254.357 54.8859 254.04C55.5414 253.68 56.2168 253.358 56.8884 253.03C57.5947 252.684 58.325 252.387 59.0201 252.019C59.4431 251.796 59.8462 251.536 60.2583 251.293C60.8483 250.944 61.4246 250.572 62.0253 250.242C62.5117 249.976 63.022 249.755 63.5111 249.493C64.1134 249.171 64.6998 248.82 65.2942 248.484C65.8885 248.148 66.4748 247.796 67.0772 247.475C67.5686 247.212 68.0723 246.974 68.5703 246.724C69.27 246.373 69.9822 246.046 70.6705 245.674C71.0915 245.446 71.4917 245.18 71.9106 244.948C72.5453 244.597 73.1909 244.265 73.839 243.938C74.5291 243.591 75.2392 243.283 75.9256 242.928C76.5012 242.631 77.0605 242.302 77.6283 241.989C78.3988 241.565 79.1739 241.148 79.9406 240.717C80.4101 240.453 80.8597 240.152 81.3416 239.911C81.9614 239.601 82.6067 239.344 83.252 239.091C84.2121 238.716 85.1512 238.233 86.1672 238.058C89.0833 237.558 92.1227 237.591 95.043 238.066C96.1059 238.239 97.0884 238.741 98.1083 239.086C99.147 239.439 100.184 239.797 101.218 240.16C101.917 240.406 102.608 240.677 103.312 240.908C104.426 241.273 105.553 241.595 106.681 241.918C107.911 242.27 109.149 242.599 110.386 242.928C111.345 243.183 112.307 243.422 113.266 243.675C114.621 244.031 115.972 244.405 117.327 244.759C118.656 245.106 119.973 245.508 121.319 245.78C122.833 246.087 124.377 246.228 125.904 246.467C127.608 246.733 129.304 247.056 131.012 247.296C134.427 247.775 137.853 248.179 141.285 248.514C145.459 248.922 149.639 249.317 153.829 249.478C156.77 249.59 159.718 249.58 162.66 249.477C166.994 249.325 171.32 248.973 175.638 248.568C178.576 248.293 181.514 247.981 184.431 247.533C186.226 247.258 187.996 246.839 189.784 246.52C191.52 246.21 193.273 245.998 195 245.645C196.242 245.392 197.469 245.065 198.698 244.754C200.056 244.409 201.4 244.014 202.759 243.675C203.817 243.41 204.891 243.208 205.945 242.928C207.089 242.624 208.22 242.27 209.35 241.918C210.385 241.595 211.403 241.222 212.439 240.908C213.266 240.657 214.114 240.479 214.936 240.211C215.886 239.901 216.812 239.52 217.745 239.161C218.651 238.813 219.552 238.454 220.452 238.09C221.035 237.855 221.615 237.612 222.196 237.372C223.009 237.036 223.817 236.688 224.634 236.362C225.506 236.014 226.396 235.709 227.266 235.352C227.808 235.129 228.347 234.897 228.876 234.644C229.544 234.324 230.181 233.945 230.847 233.62C231.611 233.248 232.413 232.955 233.166 232.561C233.598 232.335 233.997 232.053 234.422 231.816C235.056 231.463 235.703 231.134 236.351 230.806C237.036 230.46 237.724 230.119 238.421 229.796C238.899 229.574 239.406 229.412 239.869 229.159C240.553 228.785 241.155 228.277 241.816 227.863C244.038 226.468 246.334 225.196 248.591 223.859C249.512 223.314 250.447 222.793 251.35 222.22C251.731 221.978 252.104 221.723 252.471 221.462C254.641 219.915 256.717 218.239 258.867 216.664C259.275 216.365 259.705 216.094 260.102 215.78C261.26 214.866 262.346 213.865 263.441 212.876C266.033 210.536 268.48 208.038 271.086 205.714C272.932 204.068 275.531 203.071 276.744 200.916C276.786 200.841 276.752 200.741 276.785 200.662C277.322 199.329 278.393 198.281 279.247 197.126C280.15 195.905 281.109 194.727 282.058 193.542C282.311 193.226 282.573 192.919 282.826 192.604C283.084 192.283 283.358 191.974 283.59 191.634C283.827 191.289 284.005 190.906 284.228 190.552C285.322 188.817 286.41 187.07 287.665 185.449C287.83 185.236 288.028 185.051 288.201 184.845C288.651 184.309 289.115 183.782 289.51 183.203C290.667 181.507 291.673 179.705 292.592 177.868C292.849 177.355 293.029 176.806 293.269 176.284C293.509 175.764 293.777 175.256 294.033 174.743C294.286 174.239 294.554 173.743 294.798 173.234C295.126 172.547 295.427 171.846 295.737 171.15C296.164 170.193 296.578 169.231 297.004 168.274C297.367 167.461 297.768 166.664 298.102 165.839C298.386 165.139 298.63 164.424 298.873 163.708C299.152 162.887 299.405 162.056 299.66 161.227C300.034 160.016 300.374 158.794 300.75 157.583C301.071 156.546 301.473 155.533 301.746 154.483C302.058 153.277 302.206 152.033 302.475 150.817C302.63 150.119 302.807 149.425 302.983 148.732C303.039 148.514 303.111 148.3 303.157 148.08C303.329 147.263 303.453 146.435 303.54 145.605C304.06 140.682 304.377 135.728 304.379 130.778C304.381 125.452 304.177 120.107 303.487 114.826C303.264 113.116 302.78 111.45 302.439 109.759C302.178 108.465 302 107.153 301.675 105.873C301.465 105.046 301.155 104.248 300.911 103.431C300.556 102.245 300.239 101.049 299.892 99.861C299.559 98.7198 299.27 97.5638 298.873 96.4433C298.654 95.8253 298.397 95.2207 298.123 94.625C297.79 93.901 297.369 93.2198 297.039 92.4943C296.639 91.6121 296.255 90.7187 295.957 89.797C295.801 89.3175 295.815 88.7813 295.591 88.33C295.542 88.2325 295.458 88.1574 295.386 88.0755C295.198 87.8616 294.959 87.692 294.798 87.4577C294.462 86.9691 294.293 86.3844 294.033 85.8509C293.783 85.3352 293.509 84.8305 293.269 84.3099C293.029 83.7886 292.849 83.2397 292.592 82.7262C291.673 80.8895 290.667 79.0878 289.51 77.391C289.115 76.8128 288.651 76.2851 288.201 75.7495C288.028 75.5435 287.83 75.358 287.665 75.1452C286.41 73.5238 285.322 71.7769 284.228 70.0423C284.005 69.6881 283.826 69.3056 283.59 68.9599C283.357 68.6204 283.082 68.3126 282.826 67.9908C282.572 67.6729 282.316 67.3574 282.061 67.0408C281.043 65.7756 280.058 64.4828 279.005 63.246C278.017 62.0856 277.015 60.9351 275.948 59.8464C270.521 54.3057 264.878 48.9626 258.973 43.9346C257.87 42.9955 256.723 42.1061 255.534 41.2783C255.078 40.9608 254.58 40.7082 254.121 40.3944C253.657 40.0766 253.22 39.7206 252.769 39.3843C252.316 39.0471 251.881 38.6865 251.411 38.3742C250.482 37.7568 249.494 37.2351 248.532 36.6715C247.363 35.9868 246.137 35.3945 245.018 34.6319C244.541 34.3071 244.139 33.8801 243.662 33.5568C243.251 33.2789 242.816 33.0362 242.371 32.8184C241.933 32.6042 241.45 32.4907 241.019 32.2617C240.333 31.8965 239.724 31.4027 239.079 30.9688C237.903 30.1778 236.915 29.0007 235.562 28.5797C235.379 28.5227 235.176 28.6077 234.987 28.576C234.497 28.4936 234.034 28.29 233.576 28.0977C233.007 27.8587 232.486 27.518 231.925 27.262C231.114 26.8921 230.27 26.5995 229.45 26.2518C228.679 25.9253 227.917 25.5797 227.151 25.2417C226.619 25.0066 226.076 24.7927 225.555 24.5336C224.926 24.2209 224.301 23.8938 223.71 23.5139C223.27 23.2313 222.961 22.6843 222.449 22.5804C222.288 22.5479 222.134 22.6839 221.971 22.6962C221.492 22.7321 221.002 22.6897 220.537 22.5698C219.849 22.3923 219.249 21.9676 218.588 21.7061C217.64 21.3308 216.672 21.0066 215.701 20.6959C214.551 20.3281 213.372 20.0546 212.223 19.6858C211.256 19.3758 210.317 18.9865 209.35 18.6756C208.208 18.308 207.052 17.9802 205.894 17.6655C204.986 17.4189 204.068 17.2115 203.157 16.9777C201.922 16.6609 200.69 16.3298 199.457 16.009C198.286 15.7046 197.123 15.3649 195.942 15.1017C194.193 14.7121 192.422 14.434 190.66 14.1086C188.76 13.7575 186.865 13.3737 184.957 13.0735C182.462 12.6812 179.958 12.3334 177.447 12.0729C173.08 11.6199 168.7 11.262 164.313 11.0957C160.155 10.9381 155.989 10.9229 151.831 11.0768C147.487 11.2375 143.15 11.6128 138.826 12.0601C136.229 12.3288 133.64 12.6785 131.061 13.0808C129.155 13.3781 127.263 13.762 125.365 14.1097C123.606 14.432 121.835 14.694 120.091 15.0898C118.95 15.3488 117.834 15.7103 116.7 16.0013C115.366 16.3437 114.024 16.6554 112.686 16.983C111.752 17.2118 110.812 17.4161 109.884 17.67C108.767 17.9758 107.665 18.3325 106.559 18.6768C105.507 19.0042 104.461 19.3502 103.411 19.6836C102.622 19.9342 101.825 20.1605 101.042 20.4306C100.072 20.7652 99.1124 21.1303 98.16 21.5122C97.3534 21.8356 96.6109 22.3484 95.7625 22.5363C95.2088 22.659 94.6134 22.4581 94.0621 22.5911C93.8705 22.6374 93.701 22.7504 93.5274 22.8438C93.0267 23.1128 92.5542 23.4315 92.0691 23.7276C91.6575 23.9789 91.2591 24.2527 90.8367 24.4853C90.3339 24.7622 89.8171 25.015 89.2903 25.2429C88.6283 25.5293 87.932 25.73 87.2661 26.0072C86.4636 26.3412 85.6722 26.7029 84.8935 27.0892C84.2605 27.4032 83.6419 27.7456 83.0264 28.0926C82.6348 28.3133 82.2634 28.5697 81.8652 28.7783C81.1529 29.1517 80.3994 29.4409 79.6742 29.7885C78.9931 30.115 78.3177 30.4535 77.6457 30.7987C77.0056 31.1274 76.38 31.4843 75.7377 31.8088C75.045 32.1588 74.3113 32.4295 73.6399 32.819C73.1261 33.1171 72.6651 33.4983 72.1717 33.8291C71.6603 34.1719 71.1702 34.5526 70.6254 34.8392C70.3061 35.0072 69.9407 35.0773 69.6244 35.2508C68.9872 35.6001 68.4279 36.0761 67.8414 36.5053C67.2387 36.9462 66.616 37.3648 66.0584 37.8615C65.8811 38.0193 65.7452 38.2204 65.5649 38.3747C63.3987 40.2294 60.8757 41.6213 58.5583 43.283C58.2619 43.4956 57.9681 43.712 57.676 43.9305C55.6279 45.4629 53.5089 46.9106 51.5746 48.5844C47.5179 52.0949 43.7886 55.9732 40.0768 59.847C39.0226 60.9473 38.008 62.0861 37.0202 63.2466C35.9674 64.4834 34.9821 65.7761 33.9635 67.0414C33.7087 67.3579 33.4525 67.6734 33.1994 67.9913C32.9431 68.3131 32.6676 68.621 32.4352 68.9605C32.1987 69.3061 32.0204 69.6886 31.7969 70.0429C30.7027 71.7775 29.5898 73.5049 28.3597 75.1458C28.2025 75.3554 28.0219 75.5464 27.8571 75.75C27.4191 76.2913 26.9576 76.8163 26.5651 77.3915C25.4028 79.0948 24.3625 80.8858 23.4331 82.7268C23.1744 83.2393 22.9963 83.7891 22.7558 84.3105C22.5156 84.8311 22.2422 85.3357 21.9917 85.8515C21.7326 86.385 21.5635 86.9697 21.2275 87.4583C21.0664 87.6926 20.8267 87.8622 20.6394 88.076C20.5676 88.158 20.4828 88.233 20.4345 88.3306C20.2112 88.7819 20.2319 89.3195 20.0736 89.7976C19.7867 90.6637 19.3748 91.4834 19.0116 92.3204C18.6576 93.1361 18.266 93.9353 17.9228 94.7556C17.6499 95.4076 17.3919 96.0661 17.1518 96.731C16.7589 97.8193 16.4007 98.9202 16.0568 100.025C15.6834 101.224 15.3637 102.44 15.0058 103.644C14.7812 104.399 14.508 105.141 14.3178 105.906C14.0024 107.173 13.8182 108.47 13.5684 109.752C13.2346 111.466 12.7926 113.162 12.5669 114.893C11.9232 119.829 11.595 124.815 11.5684 129.793C11.5427 134.598 11.7635 139.421 12.3784 144.187C12.6092 145.976 13.0861 147.725 13.4555 149.49C13.7789 151.036 14.0578 152.593 14.4531 154.122C14.6292 154.803 14.8703 155.466 15.0644 156.142C15.5402 157.799 15.93 159.481 16.4204 161.134C16.6466 161.897 16.9098 162.648 17.1518 163.406C17.4108 164.216 17.6189 165.045 17.9228 165.84C18.2408 166.672 18.6582 167.462 19.0207 168.275C19.4471 169.232 19.8863 170.183 20.2875 171.15C20.6183 171.948 20.8743 172.777 21.2273 173.565C21.4568 174.078 21.7111 174.58 21.9915 175.066C22.2254 175.472 22.5284 175.836 22.7557 176.245C23.1439 176.944 23.4251 177.698 23.7745 178.417C24.105 179.097 24.4372 179.777 24.7934 180.444C25.0443 180.914 25.3637 181.348 25.5808 181.834C25.7865 182.295 25.9568 182.776 26.0633 183.27C26.0947 183.414 26.0512 183.574 26.1079 183.711C26.6033 184.9 27.7543 185.691 28.5638 186.693C28.9309 187.147 29.3002 187.6 29.6527 188.066C29.9086 188.404 30.1702 188.74 30.3975 189.098C30.6327 189.468 30.7901 189.886 31.0357 190.25C31.6767 191.2 32.4795 192.03 33.2009 192.92C34.2623 194.23 35.2963 195.562 36.3834 196.851C36.9225 197.49 37.4839 198.11 38.0391 198.735C38.63 199.4 39.2455 200.044 39.8221 200.722C40.4357 201.443 41.0237 202.186 41.6052 202.933C41.9526 203.38 42.3277 203.809 42.6241 204.291C43.0257 204.944 43.3262 205.655 43.643 206.353C43.9335 206.994 44.2528 207.627 44.4507 208.302C44.7308 209.258 44.8006 210.263 44.978 211.243C45.031 211.535 45.0833 211.827 45.1383 212.119C45.2811 212.878 45.5765 213.62 45.579 214.392C45.5816 215.163 45.266 215.902 45.1541 216.665C45.0886 217.111 45.0662 217.563 45.0101 218.01C44.8518 219.271 44.6618 220.528 44.4669 221.784C44.2095 223.443 43.9032 225.094 43.6398 226.753C43.3586 228.523 43.1328 230.302 42.8356 232.07C42.475 234.214 42.0251 236.343 41.6484 238.484C41.3231 240.333 41.0066 242.184 40.7219 244.04C40.3127 246.708 40.097 249.406 39.5985 252.059C39.3908 253.164 38.9724 254.228 38.8219 255.342C38.5485 257.366 37.0146 260.179 38.6 261.465C39.7517 262.4 41.9592 261.521 42.9163 260.388C42.9164 260.388 42.9162 260.388 42.9163 260.388ZM64.0206 261.616C64.0572 261.435 63.9765 261.147 63.796 261.111C63.5547 261.062 63.3055 261.374 63.2566 261.616C63.2199 261.796 63.3006 262.084 63.4811 262.121C63.7224 262.17 63.9716 261.857 64.0206 261.616ZM151.772 259.744C151.7 258.983 149.551 258.983 149.479 259.744C149.442 260.132 150.237 259.963 150.626 259.963C151.015 259.963 151.808 260.132 151.772 259.744ZM165.536 259.771C165.174 260.129 164.108 259.252 164.008 259.752C163.964 259.973 164.411 259.989 164.635 260.003C164.945 260.022 165.291 259.581 165.536 259.771C165.537 259.771 165.537 259.771 165.536 259.771ZM111.77 254.241C111.581 253.976 110.924 253.903 110.794 254.201C110.736 254.334 110.96 254.477 111.101 254.507C111.336 254.555 111.608 254.418 111.77 254.241C111.77 254.241 111.77 254.241 111.77 254.241ZM128.582 247.17C128.393 246.904 127.735 246.832 127.605 247.13C127.548 247.263 127.771 247.406 127.913 247.436C128.148 247.484 128.42 247.347 128.582 247.17C128.582 247.17 128.582 247.17 128.582 247.17ZM91.409 238.037C90.9295 237.555 89.4585 237.355 89.3712 238.029C89.3321 238.332 89.952 238.249 90.2568 238.259C90.6476 238.271 91.1597 238.338 91.409 238.037C91.4096 238.037 91.4095 238.036 91.409 238.037ZM42.977 228.418C42.7578 228.374 42.738 228.817 42.7234 229.04C42.7034 229.347 42.6527 229.971 42.9581 229.934C43.4591 229.872 43.4717 228.519 42.977 228.418ZM271.363 220.706C271.401 220.526 271.319 220.238 271.139 220.201C270.897 220.152 270.648 220.465 270.599 220.706C270.561 220.887 270.643 221.175 270.824 221.211C271.065 221.261 271.314 220.948 271.363 220.706ZM14.9528 184.752C14.8195 184.696 14.6742 184.915 14.6451 185.057C14.5971 185.29 14.678 185.76 14.9127 185.72C15.2307 185.665 14.946 185.074 14.9528 184.752ZM12.92 148.112C12.7007 148.067 12.681 148.51 12.6664 148.734C12.6464 149.041 12.5957 149.665 12.9011 149.627C13.4021 149.566 13.4147 148.212 12.92 148.112ZM10.8984 128.16C11.2013 128.513 10.6936 129.074 10.6872 129.54C10.6796 130.094 10.3401 131.224 10.8931 131.19C11.9007 131.128 10.1842 128.873 10.8984 128.16C10.8988 128.159 10.8981 128.159 10.8984 128.16ZM12.92 111.24C12.7007 111.196 12.681 111.639 12.6664 111.862C12.6464 112.169 12.5957 112.793 12.9011 112.755C13.4021 112.694 13.4147 111.341 12.92 111.24ZM303.302 111.24C303.082 111.196 303.063 111.639 303.048 111.862C303.029 112.169 302.977 112.793 303.283 112.755C303.784 112.694 303.796 111.341 303.302 111.24ZM15.3689 75.749C15.4056 75.5684 15.3249 75.2806 15.1444 75.2439C14.9031 75.195 14.6538 75.5075 14.6049 75.749C14.5682 75.9296 14.6489 76.2175 14.8294 76.2541C15.0708 76.3031 15.32 75.9906 15.3689 75.749ZM45.4259 39.8889C45.4626 39.7083 45.3819 39.4204 45.2014 39.3838C44.9601 39.3348 44.7109 39.6474 44.6619 39.8889C44.6253 40.0695 44.706 40.3574 44.8864 40.394C45.1278 40.443 45.377 40.1304 45.4259 39.8889ZM60.7092 28.7773C60.5548 28.677 60.6652 28.3089 60.4847 28.2723C60.2433 28.2233 59.9941 28.5358 59.9452 28.7773C59.9085 28.9579 59.9892 29.2458 60.1697 29.2824C60.411 29.3314 60.7996 29.0066 60.7092 28.7773C60.7092 28.7773 60.7092 28.7773 60.7092 28.7773ZM256.08 28.7773C255.851 28.6868 255.782 28.2233 255.541 28.2723C255.36 28.3089 255.279 28.5967 255.316 28.7773C255.365 29.0189 255.614 29.3314 255.856 29.2824C256.036 29.2457 256.18 28.9319 256.08 28.7773C256.08 28.7773 256.08 28.7773 256.08 28.7773Z" fill="#E77B4C"/>
<path d="M71.425 144.516C71.3386 144.405 71.5246 144.121 72.3284 143.135C72.8851 142.452 73.5315 141.624 73.7647 141.295C73.998 140.966 74.2206 140.737 74.2593 140.787C74.2978 140.838 74.3292 140.801 74.3279 140.709C74.327 140.617 74.7046 140.086 75.1673 139.529C75.63 138.973 76.1643 138.283 76.3548 137.997C76.6044 137.621 76.7139 137.526 76.7473 137.657C76.7801 137.786 76.7994 137.767 76.8142 137.59C76.8263 137.443 77.2737 136.798 77.9173 135.999C78.5127 135.26 79.6498 133.833 80.4443 132.827C81.2388 131.822 81.9248 130.996 81.9687 130.992C82.0128 130.988 82.0588 130.883 82.0714 130.758C82.0846 130.627 82.1473 130.549 82.2187 130.575C82.2872 130.601 82.3042 130.652 82.2567 130.689C82.0838 130.825 83.4099 131.027 83.9883 130.953C84.9357 130.831 85.6813 129.92 85.7891 128.751C85.8403 128.196 85.5154 127.311 85.2202 127.202C85.1236 127.167 85.0834 127.106 85.131 127.069C85.1786 127.032 84.8729 126.878 84.4516 126.727C83.8326 126.507 83.5592 126.471 83.0265 126.542C82.5302 126.608 82.3584 126.59 82.3319 126.467C82.3126 126.377 82.2023 126.193 82.0871 126.056C81.972 125.92 81.6932 125.517 81.4676 125.161C81.242 124.805 80.9241 124.345 80.7612 124.139C80.5983 123.933 80.4955 123.718 80.533 123.661C80.5705 123.605 80.561 123.557 80.5119 123.555C80.3887 123.551 79.6769 122.474 79.72 122.357C79.7393 122.305 79.7 122.274 79.6324 122.289C79.5646 122.304 79.4969 122.231 79.4812 122.128C79.4653 122.025 79.4083 121.913 79.3547 121.879C79.1922 121.776 78.3555 120.509 78.3894 120.417C78.4068 120.37 78.3701 120.313 78.3076 120.29C78.1713 120.239 77.6186 119.459 77.3238 118.901C77.2068 118.679 77.0174 118.413 76.9029 118.309C76.7784 118.196 76.7434 118.082 76.8159 118.024C76.8898 117.966 76.8801 117.941 76.7909 117.959C76.6586 117.986 75.8369 116.744 75.7537 116.391C75.7337 116.306 75.7007 116.289 75.6748 116.35C75.6506 116.407 75.5945 116.336 75.5513 116.19C75.5078 116.045 75.4592 115.961 75.4437 116.003C75.4195 116.068 74.5935 114.872 74.5023 114.639C74.4849 114.596 74.3325 114.384 74.1628 114.169C73.8706 113.799 73.4455 113.118 73.0478 112.382C72.9494 112.2 72.8378 112.038 72.7998 112.021C72.7617 112.005 72.7085 111.943 72.6815 111.884C72.6542 111.825 76.3921 113.151 80.9876 114.83L89.3431 117.885L89.3382 118.186C89.3162 119.541 90.2808 120.649 91.4588 120.623C91.7304 120.616 91.9899 120.66 92.0355 120.718C92.0811 120.777 92.1061 120.76 92.0901 120.683C92.0746 120.605 92.1677 120.546 92.2974 120.552C92.7564 120.573 93.3453 120.002 93.9266 118.972C94.0569 118.741 94.0567 118.699 93.9257 118.79C93.7848 118.888 93.7705 118.865 93.8437 118.663C94.0191 118.177 93.788 117.422 93.2686 116.785C93.1315 116.617 93.2256 116.475 94.5674 114.82C95.363 113.839 96.0299 113.072 96.0493 113.114C96.0682 113.157 96.0958 113.095 96.1096 112.977C96.141 112.708 98.7207 109.525 98.7938 109.664C98.8233 109.72 98.8347 109.687 98.818 109.594C98.7901 109.43 100.127 107.679 103.076 104.014C104.091 102.753 104.307 102.534 104.306 102.765C104.306 102.919 104.257 103.102 104.197 103.17C104.129 103.248 104.144 103.284 104.237 103.265C104.338 103.244 104.34 103.301 104.241 103.442C104.161 103.557 104.149 103.64 104.215 103.626C104.279 103.614 104.305 103.676 104.272 103.767C104.238 103.858 104.186 104.809 104.156 105.88C104.126 106.952 104.048 107.889 103.983 107.964C103.918 108.039 103.91 108.079 103.965 108.053C104.096 107.992 103.957 111.848 103.822 112.005C103.766 112.07 103.771 112.113 103.834 112.101C103.966 112.073 103.931 112.632 103.793 112.74C103.743 112.779 103.735 112.842 103.775 112.879C103.899 112.993 103.75 116.344 103.617 116.449C103.533 116.515 103.548 116.536 103.663 116.512C103.79 116.486 103.798 116.529 103.689 116.685C103.61 116.799 103.598 116.882 103.663 116.869C103.775 116.846 103.752 117.06 103.605 117.397C103.568 117.483 103.56 117.589 103.589 117.634C103.702 117.812 103.569 120.376 103.439 120.525C103.363 120.612 103.108 120.78 102.872 120.9C102.636 121.019 102.373 121.221 102.286 121.348C102.2 121.475 102.084 121.562 102.028 121.541C101.973 121.521 101.937 121.55 101.948 121.607C101.96 121.663 101.874 122.013 101.757 122.384C101.641 122.755 101.579 123.071 101.619 123.086C101.66 123.101 101.688 123.223 101.681 123.358C101.675 123.493 101.805 123.806 101.97 124.054C102.136 124.303 102.244 124.518 102.21 124.534C102.176 124.55 102.227 124.6 102.323 124.645C102.419 124.693 102.705 124.842 102.959 124.98C103.325 125.181 103.544 125.221 104.028 125.182C104.362 125.155 104.67 125.153 104.711 125.18C104.752 125.207 104.873 125.128 104.978 125.006C105.084 124.885 105.231 124.772 105.305 124.757C105.379 124.742 105.564 124.563 105.717 124.36L105.994 123.99L114.059 126.961C118.495 128.596 122.172 129.998 122.232 130.077C122.312 130.185 122.212 130.248 121.84 130.323C121.565 130.379 120.885 130.568 120.328 130.743C119.77 130.918 119.285 131.023 119.248 130.977C119.212 130.931 119.167 130.934 119.148 130.986C119.128 131.039 118.843 131.156 118.513 131.248C118.184 131.34 117.821 131.459 117.707 131.512C117.593 131.565 117.431 131.598 117.347 131.586C117.263 131.575 117.123 131.594 117.035 131.63C116.653 131.788 114.837 132.329 114.771 132.305C114.732 132.29 114.316 132.409 113.846 132.569C113.376 132.728 112.935 132.838 112.866 132.812C112.796 132.786 112.683 132.83 112.614 132.909C112.545 132.987 112.452 133.005 112.407 132.946C112.362 132.888 112.309 132.882 112.29 132.935C112.236 133.081 111.089 133.371 111.035 133.253C111.009 133.195 110.979 133.22 110.968 133.308C110.958 133.398 110.689 133.518 110.354 133.582C110.027 133.644 109.366 133.829 108.885 133.992C108.404 134.156 107.949 134.267 107.873 134.239C107.797 134.211 107.721 134.227 107.704 134.273C107.668 134.37 106.018 134.836 105.972 134.763C105.955 134.737 105.883 134.762 105.81 134.82C105.614 134.974 105.354 134.886 105.052 134.561C104.168 133.615 102.395 133.571 101.778 134.477C101.69 134.605 101.595 134.68 101.566 134.643C101.538 134.605 101.393 134.903 101.245 135.303C101.098 135.703 101.001 136.019 101.031 136.005C101.061 135.992 101.114 136.215 101.149 136.502C101.22 137.093 101.75 137.768 102.423 138.125C102.771 138.31 102.823 138.393 102.81 138.739C102.802 138.96 102.74 139.184 102.673 139.237C102.597 139.296 102.606 139.322 102.696 139.304C102.787 139.285 102.825 139.396 102.796 139.595C102.77 139.771 102.719 140.874 102.682 142.046C102.644 143.218 102.572 144.209 102.522 144.248C102.472 144.288 102.461 144.35 102.498 144.385C102.626 144.51 102.431 148.563 102.289 148.733C102.212 148.825 102.198 148.881 102.256 148.857C102.315 148.834 102.33 149.819 102.288 151.049C102.165 154.695 102.1 155.717 101.983 155.808C101.846 155.917 101.331 155.259 101.435 155.108C101.474 155.051 101.44 155.018 101.358 155.035C101.277 155.05 101.196 155.012 101.178 154.944C101.16 154.877 100.993 154.578 100.805 154.279C100.617 153.98 100.448 153.673 100.429 153.598C100.409 153.522 100.351 153.445 100.299 153.426C100.248 153.407 99.7992 152.777 99.3027 152.028C97.914 149.931 97.3726 149.123 96.8141 148.312C96.5316 147.902 96.3493 147.544 96.4089 147.516C96.4685 147.49 96.4554 147.461 96.3802 147.456C96.2459 147.448 95.9374 147.011 94.657 145.028C94.3112 144.493 93.9439 143.96 93.8405 143.843C93.7372 143.725 93.7047 143.589 93.7684 143.539C93.832 143.489 93.8262 143.46 93.7552 143.474C93.6295 143.5 92.8311 142.358 92.7658 142.059C92.7476 141.977 92.7131 141.956 92.6882 142.015C92.664 142.072 92.6109 142.026 92.5713 141.911C92.5315 141.796 92.4242 141.615 92.3329 141.507C92.2293 141.385 92.2024 141.148 92.2613 140.875C92.3134 140.635 92.3367 140.308 92.3135 140.148C92.29 139.988 92.3248 139.815 92.39 139.764C92.4602 139.708 92.4511 139.682 92.3674 139.699C92.2895 139.715 92.1924 139.602 92.1524 139.446C92.0138 138.913 91.7376 138.651 90.9255 138.281C90.4466 138.062 90.14 137.966 90.1546 138.04C90.1678 138.107 90.1194 138.109 90.0467 138.045C89.9005 137.916 88.3723 138.573 88.4455 138.733C88.4693 138.786 88.4454 138.812 88.3919 138.792C88.3385 138.773 88.1974 139.02 88.0785 139.343C87.9595 139.665 87.8236 139.915 87.7765 139.897C87.7293 139.88 87.7007 139.916 87.7131 139.978C87.7255 140.039 87.6118 140.099 87.4605 140.11C87.3094 140.122 86.9142 140.23 86.5825 140.349C86.2508 140.468 85.9451 140.522 85.9034 140.469C85.8623 140.413 85.8172 140.44 85.8046 140.523C85.7917 140.609 85.701 140.637 85.595 140.588C85.4918 140.542 85.4237 140.537 85.4436 140.578C85.4625 140.621 85.3013 140.704 85.0844 140.766C84.8675 140.827 84.2983 140.992 83.8195 141.131C83.3406 141.271 82.9216 141.375 82.8884 141.363C82.8551 141.35 82.7082 141.392 82.5621 141.454C81.9857 141.701 81.2279 141.9 81.0771 141.844C80.9896 141.812 80.9054 141.835 80.8899 141.896C80.8744 141.957 80.6804 142.042 80.459 142.085C80.2376 142.129 79.8473 142.245 79.5919 142.343C79.3365 142.442 79.0873 142.47 79.0382 142.407C78.9857 142.34 78.9615 142.351 78.9779 142.437C78.9949 142.523 78.8355 142.604 78.593 142.634C78.3653 142.66 78.1431 142.709 78.0993 142.738C77.9216 142.856 76.4721 143.233 76.4975 143.154C76.5126 143.108 76.4399 143.12 76.3367 143.181C75.9905 143.388 74.6249 143.748 74.578 143.645C74.5523 143.589 74.524 143.615 74.5142 143.699C74.5048 143.785 74.3035 143.884 74.0671 143.92C73.8306 143.958 73.5018 144.04 73.3363 144.107C72.5202 144.435 71.5272 144.648 71.425 144.516ZM91.0311 138.111C90.9687 138.056 90.8495 138.012 90.7662 138.013C90.6829 138.015 90.7334 138.063 90.8788 138.116C91.0245 138.17 91.0932 138.167 91.0311 138.111ZM101.127 135.349C101.125 135.265 101.079 135.315 101.025 135.463C100.971 135.609 100.973 135.678 101.029 135.616C101.085 135.554 101.13 135.433 101.127 135.349ZM94.3795 132.956C94.8374 132.96 96.1278 132.675 96.1381 132.568C96.1407 132.536 96.3734 132.322 96.6544 132.092C97.2952 131.569 97.7873 130.52 97.7923 129.666C97.7942 129.367 97.8082 129.045 97.8233 128.951C97.8388 128.856 97.8089 128.763 97.7576 128.744C97.7061 128.725 97.5718 128.478 97.4592 128.194C97.3465 127.911 97.1338 127.566 96.9864 127.429C96.8391 127.292 96.7335 127.14 96.7518 127.09C96.7699 127.04 96.7035 127.001 96.6034 127.003C96.5029 127.006 96.4366 126.965 96.4549 126.916C96.4734 126.865 96.1117 126.685 95.6512 126.515C95.1768 126.34 94.8241 126.257 94.8375 126.325C94.8504 126.39 94.7683 126.379 94.655 126.299C94.5389 126.216 94.4305 126.204 94.4065 126.269C94.3834 126.332 94.3461 126.343 94.3239 126.295C94.2764 126.191 94.0816 126.247 93.2438 126.607C92.902 126.754 92.604 126.849 92.5814 126.817C92.5591 126.784 92.5512 126.798 92.5644 126.843C92.5777 126.889 92.411 127.087 92.1941 127.282C91.69 127.735 91.1584 129.091 91.2031 129.81C91.219 130.067 91.2239 130.302 91.2141 130.332C91.1605 130.495 92.0552 131.923 92.3822 132.196C92.8638 132.599 93.7912 132.95 94.3795 132.956ZM84.4283 126.473C84.4064 126.425 84.3162 126.387 84.2279 126.391C84.1303 126.395 84.1466 126.428 84.268 126.479C84.3784 126.524 84.4507 126.521 84.4283 126.473ZM104.344 133.83C104.322 133.781 104.232 133.744 104.144 133.748C104.046 133.752 104.062 133.785 104.184 133.836C104.294 133.881 104.366 133.877 104.344 133.83ZM95.9277 126.469C95.8058 126.396 95.5913 126.316 95.451 126.293C95.3107 126.269 95.4102 126.33 95.6723 126.427C95.9345 126.524 96.0497 126.542 95.9277 126.469Z" fill="#DED33D"/>
<path d="M129.588 136.29C129.54 136.158 129.804 135.944 130.871 135.251C131.609 134.771 132.478 134.181 132.8 133.939C133.123 133.697 133.405 133.548 133.426 133.607C133.448 133.667 133.489 133.642 133.516 133.554C133.543 133.466 134.065 133.075 134.675 132.687C135.286 132.299 136.006 131.806 136.274 131.592C136.627 131.31 136.76 131.254 136.752 131.389C136.744 131.522 136.768 131.509 136.836 131.346C136.893 131.209 137.516 130.732 138.373 130.168C139.165 129.647 140.684 128.636 141.748 127.922C142.812 127.207 143.717 126.631 143.76 126.641C143.803 126.651 143.879 126.565 143.93 126.449C143.982 126.329 144.066 126.274 144.126 126.321C144.183 126.366 144.184 126.42 144.127 126.441C143.921 126.518 145.122 127.116 145.695 127.222C146.634 127.396 147.623 126.756 148.083 125.677C148.301 125.164 148.262 124.222 148.015 124.028C147.933 123.964 147.914 123.895 147.97 123.874C148.026 123.852 147.783 123.613 147.428 123.341C146.906 122.941 146.657 122.823 146.128 122.728C145.635 122.639 145.477 122.569 145.489 122.444C145.499 122.353 145.45 122.143 145.382 121.978C145.314 121.813 145.172 121.344 145.066 120.936C144.96 120.528 144.798 119.993 144.706 119.747C144.613 119.501 144.581 119.265 144.634 119.222C144.687 119.18 144.693 119.132 144.647 119.115C144.531 119.073 144.182 117.83 144.259 117.732C144.294 117.688 144.266 117.646 144.197 117.64C144.127 117.634 144.085 117.543 144.102 117.44C144.118 117.338 144.098 117.214 144.057 117.165C143.934 117.017 143.525 115.555 143.585 115.478C143.616 115.438 143.599 115.372 143.546 115.331C143.432 115.242 143.144 114.33 143.034 113.708C142.991 113.461 142.892 113.15 142.814 113.016C142.73 112.87 142.732 112.75 142.819 112.718C142.907 112.685 142.905 112.658 142.815 112.648C142.681 112.634 142.278 111.199 142.307 110.838C142.314 110.75 142.288 110.724 142.244 110.774C142.203 110.822 142.172 110.737 142.175 110.585C142.178 110.433 142.158 110.338 142.13 110.373C142.087 110.428 141.666 109.036 141.651 108.787C141.647 108.741 141.567 108.492 141.471 108.235C141.306 107.794 141.11 107.015 140.956 106.193C140.918 105.99 140.861 105.801 140.83 105.773C140.799 105.746 140.767 105.671 140.759 105.606C140.752 105.542 143.905 107.948 147.767 110.954L154.788 116.419L154.692 116.704C154.256 117.987 154.836 119.338 155.966 119.673C156.226 119.75 156.46 119.871 156.486 119.941C156.512 120.011 156.54 120.003 156.548 119.925C156.556 119.846 156.665 119.819 156.786 119.863C157.216 120.023 157.952 119.66 158.82 118.857C159.015 118.677 159.026 118.637 158.875 118.684C158.711 118.734 158.704 118.708 158.835 118.538C159.151 118.129 159.162 117.339 158.862 116.574C158.783 116.372 158.916 116.265 160.699 115.101C161.756 114.41 162.626 113.883 162.631 113.93C162.639 113.977 162.682 113.926 162.73 113.816C162.842 113.57 166.271 111.329 166.298 111.484C166.309 111.547 166.328 111.519 166.342 111.425C166.365 111.261 168.174 110.002 172.101 107.416C173.454 106.525 173.726 106.383 173.655 106.603C173.608 106.75 173.505 106.908 173.427 106.956C173.338 107.008 173.341 107.047 173.435 107.058C173.538 107.069 173.522 107.124 173.385 107.228C173.275 107.314 173.236 107.387 173.303 107.395C173.368 107.403 173.374 107.47 173.314 107.547C173.255 107.623 172.915 108.512 172.558 109.523C172.202 110.534 171.841 111.403 171.757 111.454C171.673 111.506 171.651 111.54 171.713 111.534C171.856 111.516 170.545 115.144 170.369 115.252C170.295 115.298 170.287 115.34 170.351 115.348C170.484 115.362 170.279 115.883 170.116 115.944C170.056 115.966 170.03 116.023 170.056 116.07C170.138 116.217 168.973 119.362 168.814 119.421C168.713 119.458 168.722 119.483 168.837 119.495C168.966 119.509 168.959 119.552 168.811 119.667C168.701 119.753 168.662 119.826 168.729 119.834C168.843 119.847 168.755 120.043 168.512 120.32C168.452 120.391 168.413 120.49 168.425 120.54C168.478 120.745 167.568 123.145 167.398 123.247C167.3 123.306 167.005 123.389 166.744 123.43C166.483 123.472 166.17 123.583 166.049 123.677C165.928 123.771 165.792 123.819 165.745 123.783C165.698 123.746 165.655 123.763 165.648 123.82C165.641 123.878 165.453 124.185 165.229 124.502C165.004 124.819 164.849 125.101 164.883 125.128C164.917 125.155 164.905 125.28 164.86 125.406C164.813 125.532 164.841 125.87 164.922 126.157C165.004 126.444 165.041 126.683 165.004 126.687C164.966 126.692 165.001 126.755 165.078 126.828C165.154 126.902 165.382 127.132 165.58 127.341C165.868 127.644 166.065 127.75 166.537 127.861C166.863 127.937 167.157 128.03 167.188 128.068C167.219 128.106 167.358 128.068 167.496 127.984C167.633 127.901 167.807 127.839 167.883 127.847C167.958 127.855 168.189 127.742 168.396 127.595L168.773 127.327L175.544 132.625C179.267 135.538 182.34 138 182.372 138.093C182.416 138.22 182.301 138.249 181.924 138.207C181.645 138.176 180.94 138.148 180.356 138.144C179.771 138.14 179.277 138.092 179.257 138.036C179.234 137.981 179.192 137.971 179.157 138.014C179.123 138.058 178.815 138.083 178.473 138.07C178.131 138.057 177.75 138.058 177.625 138.074C177.5 138.089 177.336 138.071 177.26 138.034C177.183 137.998 177.044 137.973 176.949 137.981C176.538 138.014 174.643 137.973 174.588 137.93C174.554 137.905 174.122 137.89 173.626 137.898C173.13 137.906 172.677 137.876 172.618 137.83C172.56 137.784 172.439 137.791 172.349 137.845C172.259 137.898 172.166 137.886 172.141 137.817C172.114 137.748 172.067 137.726 172.033 137.771C171.937 137.893 170.756 137.818 170.741 137.689C170.734 137.626 170.698 137.641 170.661 137.721C170.623 137.805 170.331 137.836 169.993 137.794C169.662 137.753 168.976 137.727 168.468 137.735C167.96 137.743 167.493 137.71 167.429 137.66C167.365 137.61 167.288 137.602 167.258 137.641C167.195 137.722 165.481 137.661 165.459 137.577C165.452 137.548 165.375 137.549 165.287 137.582C165.054 137.668 164.833 137.505 164.645 137.103C164.093 135.932 162.418 135.347 161.554 136.021C161.431 136.116 161.317 136.158 161.301 136.114C161.286 136.069 161.057 136.309 160.794 136.644C160.531 136.98 160.343 137.251 160.376 137.247C160.406 137.243 160.391 137.472 160.336 137.757C160.223 138.341 160.521 139.145 161.053 139.692C161.328 139.974 161.352 140.069 161.234 140.395C161.159 140.603 161.032 140.797 160.951 140.827C160.861 140.86 160.861 140.887 160.953 140.897C161.045 140.908 161.047 141.025 160.961 141.205C160.883 141.366 160.496 142.4 160.102 143.504C159.708 144.608 159.337 145.53 159.277 145.552C159.217 145.574 159.188 145.629 159.214 145.676C159.298 145.834 157.873 149.633 157.686 149.751C157.584 149.815 157.554 149.864 157.616 149.859C157.68 149.855 157.392 150.798 156.976 151.956C155.745 155.39 155.37 156.342 155.232 156.394C155.068 156.455 154.778 155.672 154.923 155.559C154.976 155.516 154.957 155.475 154.873 155.466C154.79 155.458 154.725 155.393 154.729 155.324C154.733 155.255 154.664 154.919 154.577 154.577C154.49 154.235 154.423 153.891 154.427 153.813C154.431 153.735 154.401 153.644 154.357 153.61C154.313 153.576 154.079 152.84 153.835 151.974C153.154 149.553 152.886 148.617 152.602 147.675C152.458 147.198 152.394 146.801 152.459 146.793C152.525 146.786 152.519 146.754 152.452 146.727C152.327 146.677 152.166 146.167 151.553 143.888C151.387 143.273 151.201 142.652 151.138 142.509C151.075 142.366 151.086 142.226 151.161 142.198C151.236 142.17 151.24 142.14 151.168 142.133C151.041 142.119 150.629 140.788 150.659 140.483C150.666 140.399 150.64 140.368 150.598 140.417C150.557 140.464 150.521 140.404 150.518 140.282C150.515 140.161 150.468 139.955 150.415 139.825C150.354 139.677 150.4 139.443 150.54 139.202C150.663 138.989 150.785 138.684 150.812 138.525C150.839 138.366 150.925 138.211 151.002 138.182C151.086 138.151 151.086 138.124 151 138.114C150.921 138.106 150.864 137.968 150.873 137.807C150.903 137.257 150.721 136.923 150.061 136.322C149.672 135.968 149.409 135.783 149.401 135.857C149.393 135.924 149.347 135.913 149.297 135.829C149.197 135.661 147.541 135.819 147.562 135.994C147.569 136.051 147.535 136.069 147.492 136.034C147.447 135.999 147.237 136.191 147.026 136.462C146.814 136.733 146.608 136.928 146.568 136.898C146.529 136.866 146.491 136.892 146.485 136.955C146.479 137.018 146.351 137.039 146.204 137.005C146.056 136.969 145.647 136.951 145.295 136.963C144.943 136.975 144.635 136.933 144.612 136.869C144.589 136.804 144.539 136.815 144.501 136.89C144.463 136.969 144.367 136.967 144.282 136.888C144.198 136.812 144.134 136.787 144.141 136.832C144.146 136.879 143.966 136.909 143.741 136.901C143.516 136.893 142.924 136.875 142.425 136.862C141.927 136.848 141.496 136.819 141.468 136.797C141.441 136.776 141.288 136.769 141.129 136.784C140.505 136.843 139.723 136.8 139.596 136.701C139.523 136.644 139.436 136.64 139.402 136.693C139.37 136.747 139.158 136.768 138.934 136.742C138.71 136.715 138.303 136.706 138.03 136.722C137.757 136.737 137.511 136.688 137.483 136.613C137.454 136.533 137.428 136.536 137.416 136.624C137.407 136.71 137.23 136.738 136.99 136.693C136.765 136.65 136.539 136.626 136.488 136.641C136.283 136.699 134.787 136.614 134.836 136.547C134.864 136.507 134.791 136.497 134.674 136.524C134.281 136.615 132.871 136.54 132.858 136.428C132.851 136.367 132.816 136.381 132.78 136.46C132.745 136.539 132.523 136.572 132.287 136.534C132.051 136.496 131.712 136.475 131.534 136.487C130.657 136.55 129.645 136.446 129.588 136.29ZM150.212 136.193C150.17 136.121 150.07 136.043 149.99 136.019C149.91 135.995 149.943 136.055 150.066 136.151C150.189 136.247 150.255 136.265 150.212 136.193ZM160.669 136.653C160.692 136.573 160.635 136.606 160.536 136.73C160.44 136.853 160.421 136.92 160.494 136.877C160.566 136.834 160.645 136.733 160.669 136.653ZM154.976 132.309C155.411 132.454 156.726 132.577 156.769 132.478C156.78 132.45 157.068 132.316 157.406 132.183C158.176 131.881 158.965 131.033 159.231 130.222C159.324 129.937 159.436 129.635 159.479 129.55C159.522 129.464 159.523 129.367 159.48 129.334C159.437 129.3 159.384 129.023 159.364 128.718C159.345 128.414 159.246 128.021 159.147 127.846C159.049 127.67 158.995 127.492 159.028 127.451C159.062 127.409 159.009 127.351 158.913 127.322C158.816 127.294 158.766 127.236 158.799 127.194C158.833 127.152 158.542 126.87 158.156 126.567C157.758 126.255 157.447 126.068 157.439 126.136C157.432 126.202 157.357 126.167 157.273 126.056C157.188 125.941 157.089 125.897 157.046 125.951C157.005 126.004 156.966 126.004 156.96 125.951C156.945 125.837 156.744 125.831 155.836 125.918C155.465 125.953 155.153 125.952 155.141 125.914C155.13 125.878 155.118 125.888 155.115 125.934C155.111 125.981 154.894 126.119 154.628 126.238C154.009 126.515 153.089 127.643 152.912 128.342C152.848 128.591 152.781 128.816 152.762 128.842C152.662 128.982 153.077 130.614 153.305 130.974C153.64 131.505 154.418 132.124 154.976 132.309ZM147.483 123.092C147.476 123.038 147.403 122.975 147.317 122.952C147.223 122.926 147.229 122.963 147.329 123.048C147.42 123.125 147.49 123.144 147.483 123.092ZM164.196 136.191C164.188 136.138 164.116 136.075 164.03 136.052C163.936 136.026 163.941 136.062 164.041 136.148C164.133 136.224 164.203 136.243 164.196 136.191ZM158.433 126.607C158.339 126.5 158.159 126.359 158.033 126.293C157.907 126.228 157.982 126.316 158.203 126.489C158.423 126.661 158.527 126.714 158.433 126.607Z" fill="#DED33D"/>
<path d="M189.187 131.061C189.165 130.922 189.466 130.764 190.647 130.291C191.465 129.964 192.431 129.554 192.795 129.379C193.158 129.205 193.463 129.113 193.473 129.175C193.484 129.239 193.528 129.221 193.571 129.141C193.614 129.059 194.203 128.778 194.877 128.516C195.551 128.254 196.353 127.91 196.658 127.752C197.059 127.544 197.2 127.515 197.166 127.645C197.132 127.774 197.158 127.767 197.257 127.619C197.339 127.496 198.043 127.149 198.993 126.763C199.872 126.406 201.558 125.709 202.74 125.215C203.922 124.721 204.922 124.332 204.962 124.35C205.003 124.368 205.094 124.298 205.166 124.195C205.241 124.087 205.333 124.049 205.383 124.107C205.43 124.162 205.42 124.215 205.36 124.225C205.143 124.26 206.205 125.08 206.747 125.296C207.634 125.649 208.728 125.213 209.388 124.244C209.702 123.783 209.847 122.852 209.642 122.613C209.574 122.535 209.568 122.463 209.627 122.454C209.685 122.443 209.493 122.161 209.198 121.825C208.763 121.332 208.542 121.168 208.042 120.971C207.575 120.788 207.434 120.689 207.47 120.569C207.497 120.481 207.489 120.266 207.455 120.091C207.421 119.915 207.372 119.428 207.347 119.007C207.321 118.587 207.267 118.03 207.225 117.771C207.182 117.511 207.194 117.274 207.255 117.242C207.315 117.211 207.33 117.164 207.285 117.139C207.179 117.075 207.079 115.788 207.173 115.707C207.215 115.671 207.196 115.624 207.13 115.604C207.064 115.585 207.04 115.488 207.076 115.39C207.11 115.293 207.116 115.167 207.087 115.112C206.995 114.943 206.877 113.428 206.951 113.365C206.989 113.332 206.985 113.264 206.94 113.214C206.845 113.103 206.74 112.153 206.753 111.521C206.756 111.271 206.722 110.946 206.671 110.8C206.617 110.64 206.641 110.523 206.733 110.508C206.826 110.493 206.829 110.467 206.744 110.439C206.615 110.399 206.499 108.914 206.597 108.565C206.62 108.48 206.6 108.449 206.548 108.49C206.499 108.529 206.485 108.44 206.518 108.291C206.552 108.142 206.548 108.045 206.514 108.075C206.461 108.12 206.319 106.673 206.352 106.425C206.356 106.379 206.326 106.12 206.283 105.849C206.207 105.384 206.165 104.582 206.174 103.746C206.176 103.539 206.159 103.342 206.132 103.31C206.109 103.277 206.09 103.197 206.094 103.132C206.098 103.067 208.725 106.04 211.93 109.739L217.758 116.465L217.608 116.725C216.932 117.9 217.238 119.337 218.282 119.886C218.522 120.012 218.728 120.176 218.74 120.249C218.751 120.323 218.781 120.32 218.804 120.245C218.827 120.169 218.94 120.164 219.049 120.231C219.441 120.472 220.233 120.258 221.24 119.64C221.466 119.501 221.485 119.464 221.327 119.48C221.157 119.498 221.155 119.471 221.316 119.329C221.705 118.99 221.868 118.217 221.723 117.408C221.685 117.195 221.836 117.116 223.811 116.32C224.982 115.848 225.937 115.5 225.934 115.547C225.932 115.595 225.984 115.553 226.052 115.455C226.21 115.235 230.009 113.703 230.005 113.86C230.004 113.924 230.027 113.9 230.06 113.81C230.114 113.654 232.133 112.77 236.487 110.997C237.987 110.386 238.281 110.299 238.169 110.501C238.094 110.636 237.962 110.771 237.877 110.803C237.78 110.837 237.775 110.876 237.866 110.905C237.965 110.936 237.939 110.986 237.784 111.062C237.659 111.124 237.607 111.189 237.671 111.21C237.734 111.23 237.727 111.297 237.653 111.361C237.579 111.424 237.073 112.23 236.528 113.153C235.982 114.075 235.459 114.857 235.366 114.891C235.274 114.926 235.246 114.955 235.308 114.961C235.452 114.972 233.462 118.276 233.269 118.348C233.187 118.378 233.17 118.417 233.231 118.437C233.359 118.478 233.057 118.949 232.885 118.977C232.822 118.986 232.786 119.038 232.801 119.089C232.854 119.249 231.101 122.107 230.934 122.134C230.827 122.151 230.831 122.177 230.941 122.212C231.065 122.251 231.05 122.292 230.882 122.376C230.757 122.438 230.705 122.503 230.77 122.524C230.879 122.558 230.754 122.734 230.463 122.958C230.39 123.016 230.332 123.105 230.334 123.157C230.345 123.368 228.988 125.545 228.802 125.612C228.694 125.652 228.389 125.675 228.125 125.666C227.861 125.656 227.532 125.704 227.395 125.773C227.258 125.842 227.115 125.862 227.076 125.817C227.037 125.772 226.992 125.78 226.974 125.836C226.955 125.89 226.711 126.155 226.43 126.423C226.148 126.69 225.941 126.937 225.969 126.969C225.996 127.002 225.962 127.123 225.893 127.238C225.822 127.352 225.784 127.689 225.808 127.987C225.831 128.284 225.823 128.525 225.786 128.523C225.748 128.52 225.77 128.589 225.831 128.675C225.891 128.763 226.07 129.032 226.224 129.276C226.447 129.629 226.62 129.771 227.061 129.972C227.367 130.11 227.637 130.258 227.66 130.301C227.683 130.345 227.827 130.334 227.978 130.279C228.129 130.224 228.312 130.197 228.384 130.22C228.456 130.242 228.705 130.176 228.937 130.072L229.358 129.883L234.972 136.395C238.06 139.976 240.596 142.988 240.61 143.086C240.629 143.219 240.51 143.225 240.148 143.112C239.881 143.028 239.194 142.863 238.622 142.745C238.049 142.628 237.574 142.485 237.565 142.426C237.554 142.368 237.514 142.349 237.472 142.385C237.43 142.423 237.123 142.386 236.79 142.307C236.457 142.227 236.082 142.155 235.957 142.146C235.831 142.137 235.674 142.088 235.606 142.036C235.538 141.986 235.406 141.934 235.311 141.923C234.902 141.876 233.05 141.468 233.005 141.415C232.975 141.383 232.556 141.285 232.068 141.197C231.58 141.108 231.141 140.99 231.092 140.934C231.044 140.878 230.924 140.861 230.826 140.896C230.727 140.931 230.637 140.901 230.626 140.829C230.615 140.755 230.572 140.725 230.529 140.762C230.412 140.864 229.268 140.561 229.278 140.431C229.282 140.368 229.244 140.375 229.193 140.447C229.14 140.522 228.847 140.495 228.524 140.388C228.207 140.284 227.539 140.125 227.039 140.034C226.54 139.944 226.088 139.82 226.035 139.759C225.982 139.697 225.908 139.675 225.87 139.707C225.793 139.774 224.123 139.381 224.118 139.295C224.117 139.265 224.041 139.251 223.949 139.266C223.703 139.305 223.519 139.102 223.412 138.671C223.097 137.415 221.568 136.517 220.589 137.009C220.45 137.079 220.331 137.098 220.323 137.052C220.316 137.004 220.046 137.195 219.723 137.473C219.4 137.752 219.163 137.981 219.196 137.983C219.226 137.986 219.166 138.207 219.058 138.476C218.834 139.027 218.97 139.874 219.386 140.513C219.601 140.843 219.606 140.941 219.427 141.238C219.313 141.427 219.15 141.593 219.066 141.607C218.97 141.622 218.966 141.648 219.054 141.676C219.142 141.704 219.122 141.82 219.002 141.98C218.895 142.122 218.315 143.061 217.714 144.068C217.114 145.075 216.571 145.906 216.508 145.917C216.444 145.928 216.405 145.975 216.421 146.026C216.473 146.197 214.338 149.647 214.132 149.727C214.019 149.77 213.981 149.812 214.042 149.819C214.105 149.827 213.64 150.697 213.008 151.752C211.133 154.881 210.581 155.743 210.435 155.766C210.262 155.793 210.131 154.97 210.294 154.888C210.355 154.854 210.344 154.812 210.264 154.786C210.184 154.763 210.134 154.687 210.151 154.619C210.166 154.552 210.166 154.209 210.147 153.857C210.128 153.504 210.128 153.154 210.148 153.078C210.167 153.003 210.155 152.907 210.118 152.865C210.08 152.823 209.994 152.056 209.923 151.159C209.725 148.652 209.643 147.682 209.548 146.702C209.499 146.206 209.514 145.805 209.578 145.809C209.644 145.813 209.644 145.783 209.582 145.743C209.469 145.669 209.41 145.139 209.251 142.784C209.207 142.148 209.145 141.503 209.111 141.351C209.077 141.198 209.115 141.063 209.194 141.05C209.273 141.037 209.283 141.008 209.213 140.987C209.091 140.949 208.945 139.563 209.033 139.27C209.056 139.189 209.037 139.154 208.986 139.193C208.937 139.232 208.913 139.166 208.934 139.046C208.953 138.926 208.949 138.715 208.923 138.577C208.893 138.42 208.982 138.199 209.167 137.99C209.329 137.805 209.508 137.53 209.565 137.379C209.622 137.228 209.736 137.093 209.818 137.08C209.906 137.066 209.911 137.039 209.829 137.012C209.753 136.989 209.723 136.843 209.764 136.686C209.9 136.153 209.786 135.79 209.255 135.072C208.942 134.649 208.721 134.416 208.698 134.487C208.679 134.551 208.634 134.532 208.601 134.439C208.536 134.256 206.881 134.089 206.867 134.265C206.864 134.322 206.827 134.333 206.791 134.29C206.754 134.247 206.511 134.395 206.251 134.619C205.991 134.844 205.75 134.996 205.718 134.958C205.684 134.92 205.642 134.937 205.625 134.998C205.606 135.058 205.478 135.055 205.339 134.992C205.202 134.928 204.804 134.831 204.456 134.774C204.108 134.718 203.814 134.617 203.804 134.549C203.793 134.481 203.743 134.482 203.691 134.549C203.639 134.619 203.545 134.598 203.476 134.504C203.409 134.413 203.351 134.376 203.349 134.421C203.347 134.47 203.163 134.463 202.944 134.412C202.724 134.36 202.147 134.228 201.66 134.117C201.174 134.007 200.757 133.895 200.734 133.868C200.711 133.842 200.562 133.806 200.404 133.79C199.781 133.726 199.021 133.532 198.916 133.411C198.855 133.34 198.77 133.319 198.728 133.365C198.684 133.411 198.474 133.391 198.259 133.322C198.045 133.252 197.647 133.164 197.376 133.126C197.105 133.088 196.873 132.993 196.861 132.913C196.846 132.829 196.821 132.827 196.793 132.911C196.767 132.993 196.588 132.987 196.361 132.896C196.148 132.81 195.931 132.743 195.879 132.747C195.667 132.764 194.216 132.39 194.276 132.334C194.31 132.3 194.242 132.277 194.123 132.28C193.72 132.293 192.351 131.946 192.359 131.833C192.363 131.772 192.329 131.779 192.277 131.85C192.229 131.92 192.004 131.909 191.779 131.826C191.555 131.743 191.227 131.657 191.05 131.635C190.177 131.525 189.205 131.229 189.18 131.064L189.187 131.061ZM209.438 134.973C209.411 134.895 209.327 134.798 209.254 134.759C209.18 134.72 209.201 134.785 209.303 134.904C209.404 135.022 209.466 135.053 209.438 134.973ZM219.606 137.457C219.644 137.383 219.583 137.404 219.461 137.506C219.343 137.608 219.311 137.67 219.391 137.642C219.47 137.614 219.567 137.53 219.606 137.457ZM214.864 132.089C215.263 132.315 216.53 132.692 216.591 132.603C216.606 132.577 216.916 132.502 217.273 132.438C218.087 132.291 219.025 131.612 219.443 130.868C219.59 130.607 219.758 130.332 219.817 130.257C219.876 130.182 219.895 130.087 219.86 130.045C219.826 130.004 219.826 129.722 219.863 129.419C219.904 129.117 219.882 128.712 219.82 128.521C219.758 128.33 219.739 128.145 219.78 128.11C219.821 128.076 219.781 128.009 219.693 127.962C219.603 127.916 219.565 127.848 219.605 127.814C219.647 127.779 219.417 127.446 219.096 127.074C218.766 126.69 218.498 126.447 218.477 126.512C218.458 126.575 218.391 126.526 218.33 126.401C218.269 126.272 218.18 126.209 218.127 126.254C218.077 126.298 218.039 126.29 218.043 126.237C218.05 126.122 217.854 126.077 216.947 125.986C216.577 125.949 216.27 125.887 216.266 125.848C216.262 125.81 216.247 125.817 216.236 125.862C216.224 125.907 215.983 126 215.699 126.065C215.039 126.217 213.917 127.145 213.607 127.796C213.496 128.028 213.387 128.236 213.364 128.258C213.239 128.375 213.33 130.057 213.482 130.455C213.708 131.041 214.348 131.799 214.86 132.089L214.864 132.089ZM209.303 121.591C209.306 121.537 209.247 121.461 209.167 121.422C209.08 121.378 209.078 121.415 209.16 121.518C209.234 121.611 209.299 121.644 209.303 121.591ZM223.156 137.688C223.159 137.635 223.099 137.559 223.02 137.519C222.933 137.476 222.931 137.513 223.013 137.616C223.087 137.709 223.152 137.741 223.156 137.688ZM219.362 127.167C219.291 127.044 219.142 126.87 219.031 126.782C218.919 126.693 218.976 126.794 219.159 127.006C219.342 127.218 219.433 127.29 219.362 127.167Z" fill="#DED33D"/>
</svg>
