<svg width="121" height="121" viewBox="0 0 121 121" fill="none" xmlns="http://www.w3.org/2000/svg">
<g clip-path="url(#clip0_30_143)">
<path fill-rule="evenodd" clip-rule="evenodd" d="M55.7656 11.1369C56.57 9.23562 58.4356 8 60.5 8C62.5644 8 64.43 9.23562 65.2344 11.1369L68.6937 19.3062L75.0163 13.0831C76.4863 11.6337 78.6819 11.2063 80.5906 11.9956C82.4994 12.7869 83.7481 14.6413 83.765 16.7075L83.8344 25.5781L92.0563 22.2462C93.9706 21.4719 96.1625 21.9163 97.6231 23.3769C99.0837 24.8375 99.5281 27.0294 98.7537 28.9438L95.4219 37.1656L104.293 37.235C106.359 37.2519 108.213 38.5006 109.004 40.4094C109.794 42.3181 109.366 44.5137 107.917 45.9837L101.694 52.3062L109.863 55.7656C111.764 56.57 113 58.4356 113 60.5C113 62.5644 111.764 64.43 109.863 65.2344L101.694 68.6937L107.917 75.0163C109.366 76.4863 109.794 78.6819 109.004 80.5906C108.213 82.4994 106.359 83.7481 104.293 83.765L95.4219 83.8344L98.7537 92.0563C99.5281 93.9706 99.0837 96.1625 97.6231 97.6231C96.1625 99.0837 93.9706 99.5281 92.0563 98.7538L83.8344 95.4219L83.765 104.292C83.7481 106.359 82.4994 108.213 80.5906 109.004C78.6819 109.794 76.4863 109.366 75.0163 107.917L68.6937 101.694L65.2344 109.863C64.43 111.764 62.5644 113 60.5 113C58.4356 113 56.57 111.764 55.7656 109.863L52.3062 101.694L45.9838 107.917C44.5138 109.366 42.3181 109.794 40.4094 109.004C38.5006 108.213 37.2519 106.359 37.235 104.292L37.1656 95.4219L28.9437 98.7538C27.0294 99.5281 24.8375 99.0837 23.3769 97.6231C21.9162 96.1625 21.4719 93.9706 22.2462 92.0563L25.5781 83.8344L16.7075 83.765C14.6412 83.7481 12.7869 82.4994 11.9956 80.5906C11.2062 78.6819 11.6337 76.4863 13.0831 75.0163L19.3062 68.6937L11.1369 65.2344C9.23562 64.43 8 62.5644 8 60.5C8 58.4356 9.23562 56.57 11.1369 55.7656L19.3062 52.3062L13.0831 45.9837C11.6337 44.5137 11.2062 42.3181 11.9956 40.4094C12.7869 38.5006 14.6412 37.2519 16.7075 37.235L25.5781 37.1656L22.2462 28.9438C21.4719 27.0294 21.9162 24.8375 23.3769 23.3769C24.8375 21.9163 27.0294 21.4719 28.9437 22.2462L37.1656 25.5781L37.235 16.7075C37.2519 14.6413 38.5006 12.7869 40.4094 11.9956C42.3181 11.2063 44.5138 11.6337 45.9838 13.0831L52.3062 19.3062L55.7656 11.1369Z" fill="white" stroke="#22204D" stroke-width="5" stroke-miterlimit="1.5" stroke-linecap="round" stroke-linejoin="round"/>
<path d="M57.2255 66.047C57.2255 66.047 54.0978 53.1035 68.5919 54.1358C83.086 55.1681 76.6507 68.9712 70.4863 73.9877C64.3219 79.0043 40.5244 81.2516 43.9646 60.0914C47.4049 38.9312 64.8031 44.2098 64.8031 44.2098" stroke="#CD5A46" stroke-width="7" stroke-miterlimit="1.5" stroke-linecap="round" stroke-linejoin="round"/>
</g>
<defs>
<clipPath id="clip0_30_143">
<rect width="120" height="120" fill="white" transform="translate(0.5 0.5)"/>
</clipPath>
</defs>
</svg>
