<svg xmlns="http://www.w3.org/2000/svg" xmlns:xlink="http://www.w3.org/1999/xlink" width="40" zoomAndPan="magnify" viewBox="0 0 30 30.000001" height="40" preserveAspectRatio="xMidYMid meet" version="1.2"><defs><clipPath id="afd7ea0eaa"><path d="M 4.113281 2.042969 L 25.886719 2.042969 L 25.886719 26.722656 L 4.113281 26.722656 Z M 4.113281 2.042969 "/></clipPath></defs><g id="84fbcbeb55"><g clip-rule="nonzero" clip-path="url(#afd7ea0eaa)"><path style=" stroke:none;fill-rule:nonzero;fill:#1e466a;fill-opacity:1;" d="M 14.316406 26.808594 C 12.695312 26.195312 10.851562 25.085938 10.167969 24.324219 C 9.679688 23.777344 8.910156 22.308594 8.695312 21.511719 C 8.566406 21.039062 8.496094 20.914062 8.269531 20.773438 C 7.894531 20.542969 7.347656 19.9375 7.128906 19.511719 C 6.601562 18.480469 6.644531 17.046875 7.21875 16.433594 C 7.386719 16.257812 7.386719 16.257812 7.207031 16.097656 C 6.878906 15.796875 6.792969 15.515625 6.792969 14.714844 L 6.792969 13.953125 L 6.53125 14.085938 C 6.191406 14.261719 5.910156 14.1875 5.789062 13.894531 C 5.703125 13.6875 5.746094 13.527344 6.148438 12.523438 C 6.402344 11.898438 6.597656 11.378906 6.589844 11.367188 C 6.570312 11.351562 4.53125 10.925781 4.460938 10.925781 C 4.351562 10.925781 4.171875 10.613281 4.171875 10.414062 C 4.171875 10.121094 4.164062 10.125 5.835938 9.261719 L 7.121094 8.601562 L 6.453125 7.46875 C 6.082031 6.847656 5.78125 6.238281 5.78125 6.117188 C 5.777344 5.996094 5.851562 5.832031 5.941406 5.753906 C 6.097656 5.609375 6.175781 5.613281 7.675781 5.835938 C 8.542969 5.960938 9.269531 6.042969 9.296875 6.015625 C 9.324219 5.988281 9.246094 5.378906 9.125 4.65625 C 8.894531 3.304688 8.90625 3.09375 9.207031 2.980469 C 9.460938 2.882812 9.5625 2.925781 11.222656 3.894531 C 12.140625 4.425781 12.921875 4.863281 12.960938 4.863281 C 13 4.863281 13.351562 4.332031 13.738281 3.679688 C 14.445312 2.488281 14.597656 2.335938 14.964844 2.460938 C 15.046875 2.488281 15.515625 3.023438 16 3.644531 C 16.484375 4.269531 16.902344 4.777344 16.925781 4.777344 C 16.953125 4.777344 17.507812 4.25 18.160156 3.605469 C 19.296875 2.480469 19.417969 2.390625 19.742188 2.410156 C 19.96875 2.425781 20.039062 2.644531 20.28125 4.074219 C 20.402344 4.808594 20.515625 5.425781 20.535156 5.441406 C 20.550781 5.460938 21.304688 5.257812 22.214844 4.992188 C 23.792969 4.53125 23.875 4.515625 24.078125 4.644531 C 24.203125 4.730469 24.289062 4.863281 24.289062 4.984375 C 24.289062 5.097656 23.984375 5.820312 23.613281 6.59375 C 23.238281 7.367188 22.933594 8.011719 22.933594 8.027344 C 22.933594 8.039062 23.597656 8.394531 24.410156 8.816406 C 25.316406 9.285156 25.902344 9.640625 25.933594 9.738281 C 25.960938 9.824219 25.945312 9.988281 25.902344 10.101562 C 25.835938 10.273438 25.609375 10.394531 24.695312 10.757812 C 24.074219 11.003906 23.542969 11.226562 23.507812 11.253906 C 23.472656 11.285156 23.65625 11.839844 23.910156 12.484375 C 24.421875 13.777344 24.4375 13.996094 24.03125 14.152344 C 23.78125 14.246094 23.78125 14.25 23.78125 14.921875 C 23.78125 15.625 23.699219 15.847656 23.332031 16.148438 C 23.175781 16.273438 23.175781 16.289062 23.386719 16.59375 C 24.179688 17.761719 23.609375 19.820312 22.230469 20.765625 C 21.914062 20.980469 21.863281 21.070312 21.726562 21.601562 C 21.519531 22.402344 20.808594 23.792969 20.34375 24.308594 C 19.871094 24.832031 18.703125 25.617188 17.53125 26.203125 C 16.546875 26.691406 15.503906 27.089844 15.21875 27.085938 C 15.117188 27.085938 14.710938 26.960938 14.316406 26.808594 Z M 17.039062 25.433594 C 17.539062 25.179688 17.949219 24.941406 17.949219 24.90625 C 17.949219 24.804688 17.539062 24.222656 17.21875 23.867188 C 16.90625 23.519531 16.863281 23.269531 17.074219 23.035156 C 17.316406 22.765625 17.605469 22.84375 18.015625 23.28125 C 18.222656 23.5 18.488281 23.820312 18.605469 23.996094 C 18.722656 24.167969 18.84375 24.3125 18.875 24.3125 C 19.035156 24.3125 19.640625 23.6875 19.640625 23.523438 C 19.640625 23.257812 19.257812 22.84375 18.632812 22.433594 C 18.042969 22.046875 17.910156 21.835938 18.0625 21.523438 C 18.242188 21.164062 18.597656 21.214844 19.328125 21.703125 C 19.683594 21.9375 20.03125 22.210938 20.097656 22.304688 C 20.257812 22.535156 20.34375 22.464844 20.574219 21.902344 L 20.765625 21.429688 L 20.566406 21.277344 C 20.457031 21.195312 20.003906 21.003906 19.558594 20.855469 C 19.113281 20.707031 18.703125 20.523438 18.644531 20.453125 C 18.386719 20.132812 18.617188 19.679688 19.039062 19.679688 C 19.289062 19.679688 20.25 19.988281 20.753906 20.230469 C 21.039062 20.367188 21.074219 20.371094 21.203125 20.242188 C 21.277344 20.164062 21.390625 20.101562 21.445312 20.101562 C 21.660156 20.101562 22.253906 19.496094 22.464844 19.066406 C 22.917969 18.144531 22.863281 17.429688 22.296875 16.851562 C 22.089844 16.640625 21.921875 16.429688 21.921875 16.390625 C 21.921875 16.34375 19.234375 16.3125 15.359375 16.3125 L 8.796875 16.3125 L 8.34375 16.777344 C 7.835938 17.300781 7.765625 17.484375 7.832031 18.125 C 7.925781 19.019531 8.476562 19.851562 9.214844 20.199219 C 9.542969 20.355469 9.582031 20.355469 9.828125 20.230469 C 9.972656 20.15625 10.433594 19.984375 10.851562 19.847656 C 11.8125 19.535156 12.117188 19.617188 12.117188 20.1875 C 12.117188 20.425781 11.90625 20.582031 11.378906 20.734375 C 10.648438 20.941406 9.929688 21.28125 9.878906 21.445312 C 9.851562 21.523438 9.929688 21.808594 10.046875 22.070312 L 10.261719 22.554688 L 10.765625 22.101562 C 11.4375 21.492188 12.09375 21.160156 12.398438 21.273438 C 12.621094 21.359375 12.765625 21.679688 12.679688 21.902344 C 12.65625 21.96875 12.375 22.191406 12.058594 22.398438 C 11.390625 22.832031 11.0625 23.167969 10.988281 23.484375 C 10.941406 23.675781 10.988281 23.753906 11.289062 24.011719 C 11.480469 24.175781 11.667969 24.3125 11.699219 24.3125 C 11.730469 24.3125 11.863281 24.167969 11.992188 23.996094 C 12.414062 23.425781 12.992188 22.878906 13.175781 22.878906 C 13.402344 22.878906 13.605469 23.039062 13.675781 23.273438 C 13.714844 23.410156 13.628906 23.570312 13.3125 23.949219 C 13.085938 24.222656 12.835938 24.566406 12.761719 24.714844 L 12.621094 24.980469 L 13.40625 25.375 C 13.835938 25.59375 14.429688 25.855469 14.726562 25.957031 C 15.238281 26.136719 15.289062 26.140625 15.699219 26.019531 C 15.9375 25.949219 16.539062 25.6875 17.039062 25.433594 Z M 10.257812 15.269531 C 10.257812 15.253906 10.199219 15.078125 10.132812 14.882812 C 9.957031 14.394531 9.960938 12.992188 10.136719 12.476562 C 10.210938 12.261719 10.25 12.066406 10.222656 12.039062 C 10.195312 12.015625 9.652344 12.292969 9.011719 12.660156 L 7.847656 13.328125 L 7.800781 15.304688 L 9.03125 15.304688 C 9.703125 15.304688 10.257812 15.289062 10.257812 15.269531 Z M 19.207031 15.085938 C 19.527344 14.820312 19.636719 14.433594 19.636719 13.617188 C 19.636719 13.175781 19.585938 12.878906 19.472656 12.625 C 19.195312 12.019531 19.203125 12.019531 15.257812 12.019531 L 11.804688 12.019531 L 11.519531 12.210938 C 11.359375 12.316406 11.183594 12.496094 11.125 12.609375 C 10.96875 12.917969 10.984375 14.488281 11.144531 14.800781 C 11.402344 15.296875 11.394531 15.296875 15.34375 15.300781 L 18.949219 15.304688 Z M 22.832031 14.492188 L 22.808594 13.683594 L 22.042969 13.242188 C 21.621094 13 21.109375 12.703125 20.902344 12.582031 L 20.527344 12.363281 L 20.554688 13.523438 C 20.578125 14.425781 20.554688 14.75 20.453125 14.992188 L 20.324219 15.304688 L 22.855469 15.304688 Z M 8.617188 11.726562 L 9.867188 11.007812 L 20.238281 11.007812 L 21.46875 11.726562 C 22.148438 12.125 22.722656 12.429688 22.746094 12.40625 C 22.769531 12.382812 22.664062 12.050781 22.507812 11.671875 C 22.140625 10.761719 22.179688 10.691406 23.304688 10.226562 C 24.28125 9.824219 24.316406 9.90625 22.832031 9.148438 C 22.035156 8.746094 21.828125 8.605469 21.785156 8.429688 C 21.742188 8.269531 21.863281 7.933594 22.261719 7.085938 C 22.554688 6.464844 22.777344 5.941406 22.757812 5.921875 C 22.738281 5.90625 22.144531 6.0625 21.441406 6.269531 C 20.621094 6.511719 20.078125 6.632812 19.945312 6.597656 C 19.691406 6.535156 19.617188 6.320312 19.429688 5.117188 C 19.351562 4.628906 19.273438 4.179688 19.25 4.113281 C 19.226562 4.035156 18.835938 4.359375 18.128906 5.058594 C 17.535156 5.644531 16.980469 6.125 16.902344 6.125 C 16.710938 6.125 16.53125 5.933594 15.636719 4.800781 C 15.226562 4.277344 14.859375 3.851562 14.824219 3.851562 C 14.789062 3.851562 14.480469 4.332031 14.140625 4.914062 C 13.769531 5.554688 13.445312 6.011719 13.328125 6.0625 C 13.160156 6.140625 12.9375 6.039062 11.65625 5.308594 C 10.84375 4.84375 10.164062 4.480469 10.148438 4.496094 C 10.128906 4.511719 10.199219 5.015625 10.296875 5.609375 C 10.402344 6.230469 10.453125 6.769531 10.417969 6.867188 C 10.292969 7.199219 10.117188 7.214844 8.652344 7.007812 C 7.886719 6.902344 7.25 6.820312 7.242188 6.828125 C 7.234375 6.839844 7.46875 7.261719 7.769531 7.765625 C 8.070312 8.273438 8.3125 8.769531 8.3125 8.867188 C 8.3125 9.117188 8.144531 9.246094 7.144531 9.742188 C 6.660156 9.980469 6.292969 10.203125 6.324219 10.234375 C 6.355469 10.265625 6.65625 10.351562 6.988281 10.417969 C 7.484375 10.523438 7.613281 10.585938 7.714844 10.769531 C 7.828125 10.972656 7.820312 11.039062 7.617188 11.570312 C 7.289062 12.40625 7.277344 12.441406 7.324219 12.441406 C 7.347656 12.441406 7.929688 12.117188 8.617188 11.726562 Z M 8.617188 11.726562 "/></g><path style=" stroke:none;fill-rule:nonzero;fill:#1e466a;fill-opacity:1;" d="M 11.855469 18.257812 C 11.359375 17.761719 11.671875 16.992188 12.371094 16.992188 C 12.824219 16.992188 13.132812 17.3125 13.132812 17.789062 C 13.132812 18.105469 12.710938 18.503906 12.371094 18.503906 C 12.1875 18.503906 12.023438 18.421875 11.855469 18.257812 Z M 11.855469 18.257812 "/><path style=" stroke:none;fill-rule:nonzero;fill:#1e466a;fill-opacity:1;" d="M 17.851562 18.375 C 17.570312 18.222656 17.402344 17.769531 17.519531 17.46875 C 17.804688 16.71875 18.960938 16.894531 18.960938 17.691406 C 18.960938 18.097656 18.894531 18.238281 18.617188 18.378906 C 18.324219 18.53125 18.140625 18.53125 17.851562 18.375 Z M 17.851562 18.375 "/></g></svg>